# xmcd
#
# Track frame offsets: 
#        150
#        12450
#        23724
#        34789
#        46694
#        64156
#        75865
#        85523
#        98799
#        113586
#        124875
#        138640
#
# Disc length: 1998 seconds
#
# Revision: 0
# Processed by: cddbd v1.5.1PL2 Copyright (c) Steve Scherf et al.
# Submitted via: ExactAudioCopy v0.95a5
#
DISCID=8907cc0c
DTITLE=Various Artist - Bad Girls Of Country
DYEAR=2001
DGENRE=Country
TTITLE0=Barbara Mandrell/Midnight Oil
TTITLE1=Kitty Wells/It Wasn't God Who Made Honky Tonk Angels
TTITLE2=Patsy Cline/Hungry For Love
TTITLE3=Billy Jo Spears/Look What They've Done To My Song
TTITLE4=Deborah Allen/Baby I Lied
TTITLE5=Barbara Fairchild/You Can't Put The City Into A Country Girl
TTITLE6=Donna Fargo/Sticks And Stones
TTITLE7=Lynn Anderson/Rose Garden
TTITLE8=Jeanne Pruett/Satin Sheets
TTITLE9=Dottie West/Heartbreak U.S.A.
TTITLE10=Bonnie Guitar/Hey, Mr Music Man
TTITLE11=Kendalls/Heaven's Just A Sin Away
EXTD=
EXTT0=
EXTT1=
EXTT2=
EXTT3=
EXTT4=
EXTT5=
EXTT6=
EXTT7=
EXTT8=
EXTT9=
EXTT10=
EXTT11=
PLAYORDER=
